<mxfile host="app.diagrams.net" modified="2024-01-05T05:27:30.862Z" agent="Mozilla/5.0 (Macintosh; Intel Mac OS X 10_15_7) AppleWebKit/537.36 (KHTML, like Gecko) Chrome/120.0.0.0 Safari/537.36" etag="W3HTggOPPrOYOLAQBVEt" version="22.1.16" type="device">
  <diagram name="Страница — 1" id="M7Aa8bgDJ5WrKkE8GVp1">
    <mxGraphModel dx="1383" dy="977" grid="1" gridSize="10" guides="1" tooltips="1" connect="1" arrows="1" fold="1" page="1" pageScale="1" pageWidth="1169" pageHeight="827" math="0" shadow="0">
      <root>
        <mxCell id="0" />
        <mxCell id="1" parent="0" />
        <mxCell id="xxX0qOmwGs3klXu2K3Z9-5" value="&lt;svg data-v-0dd9719b=&quot;&quot; version=&quot;1.0&quot; xmlns=&quot;http://www.w3.org/2000/svg&quot; xmlns:xlink=&quot;http://www.w3.org/1999/xlink&quot; width=&quot;100%&quot; height=&quot;100%&quot; viewBox=&quot;0 0 340.000000 250.000000&quot; preserveAspectRatio=&quot;xMidYMid meet&quot; color-interpolation-filters=&quot;sRGB&quot; style=&quot;margin: auto;&quot;&gt; &lt;rect data-v-0dd9719b=&quot;&quot; x=&quot;0&quot; y=&quot;0&quot; width=&quot;100%&quot; height=&quot;100%&quot; fill=&quot;#ffcd1a&quot; fill-opacity=&quot;1&quot; class=&quot;background&quot;&gt;&lt;/rect&gt; &lt;rect data-v-0dd9719b=&quot;&quot; x=&quot;0&quot; y=&quot;0&quot; width=&quot;100%&quot; height=&quot;100%&quot; fill=&quot;url(#watermark)&quot; fill-opacity=&quot;1&quot; class=&quot;watermarklayer&quot;&gt;&lt;/rect&gt; &lt;g data-v-0dd9719b=&quot;&quot; fill=&quot;#feffff&quot; class=&quot;iconbordersvg&quot; transform=&quot;translate(115,41.26000213623047)&quot;&gt;&lt;g data-gra=&quot;graph-icon-name&quot;&gt;&lt;g&gt;&lt;rect data-gra=&quot;graph-name-bg&quot; stroke-width=&quot;2&quot; class=&quot;i-icon-bg&quot; x=&quot;0&quot; y=&quot;0&quot; width=&quot;110&quot; height=&quot;167.47999572753906&quot; fill-opacity=&quot;0&quot; stroke=&quot;rgb(254, 255, 255)&quot;&gt;&lt;/rect&gt; &lt;!----&gt; &lt;!----&gt; &lt;/g&gt; &lt;g transform=&quot;translate(0,0)&quot;&gt;&lt;g data-gra=&quot;graph-icon&quot; transform=&quot;translate(0,0)&quot;&gt;&lt;g&gt;&lt;rect data-gra=&quot;graph-name-bg&quot; stroke-width=&quot;2&quot; class=&quot;i-icon-bg&quot; x=&quot;0&quot; y=&quot;0&quot; width=&quot;110&quot; height=&quot;110&quot; fill-opacity=&quot;0&quot;&gt;&lt;/rect&gt; &lt;!----&gt; &lt;!----&gt; &lt;/g&gt; &lt;g transform=&quot;translate(5,5)&quot;&gt;&lt;g class=&quot;iconsvg-imagesvg&quot;&gt;&lt;g&gt;&lt;!----&gt; &lt;svg filter=&quot;url(#colors8875828082)&quot; x=&quot;0&quot; y=&quot;0&quot; width=&quot;100&quot; height=&quot;100&quot; filtersec=&quot;colorsf3666122138&quot; class=&quot;image-svg-svg primary&quot; style=&quot;overflow: visible;&quot;&gt;&lt;svg xmlns=&quot;http://www.w3.org/2000/svg&quot; viewBox=&quot;0.7999999999999998 0.7999999999999998 88.5 88.5&quot;&gt;&lt;path d=&quot;M45.1 87.3L2.8 45.1 45.1 2.8 87.3 45 45.1 87.3zm21.1-63.4L45.1 45.1v42.2M73.2 31L52.1 52.1v28.2M80.3 38L59.1 59.1v14.1m-35.2-7L45 45.1V2.8M16.9 59.1L38 38V9.9M9.9 52.1L31 31V16.9m0 56.3l14.1-14.1M38 80.3l7-7m14.1-56.4L45.1 31m7-21.1l-7 7&quot; fill=&quot;none&quot; stroke=&quot;#333&quot; stroke-width=&quot;4&quot; stroke-miterlimit=&quot;10&quot;&gt;&lt;/path&gt;&lt;/svg&gt;&lt;/svg&gt; &lt;defs&gt;&lt;filter id=&quot;colors8875828082&quot;&gt;&lt;feColorMatrix type=&quot;matrix&quot; values=&quot;0 0 0 0 0.9921875  0 0 0 0 0.99609375  0 0 0 0 0.99609375  0 0 0 1 0&quot; class=&quot;icon-fecolormatrix&quot;&gt;&lt;/feColorMatrix&gt;&lt;/filter&gt; &lt;filter id=&quot;colorsf3666122138&quot;&gt;&lt;feColorMatrix type=&quot;matrix&quot; values=&quot;0 0 0 0 0.99609375  0 0 0 0 0.99609375  0 0 0 0 0.99609375  0 0 0 1 0&quot; class=&quot;icon-fecolormatrix&quot;&gt;&lt;/feColorMatrix&gt;&lt;/filter&gt; &lt;filter id=&quot;colorsb9600855462&quot;&gt;&lt;feColorMatrix type=&quot;matrix&quot; values=&quot;0 0 0 0 0  0 0 0 0 0  0 0 0 0 0  0 0 0 1 0&quot; class=&quot;icon-fecolormatrix&quot;&gt;&lt;/feColorMatrix&gt;&lt;/filter&gt;&lt;/defs&gt;&lt;/g&gt;&lt;/g&gt;&lt;/g&gt;&lt;/g&gt; &lt;g data-gra=&quot;graph-name&quot; transform=&quot;translate(5.819999694824219,110)&quot;&gt;&lt;g&gt;&lt;rect data-gra=&quot;graph-name-bg&quot; stroke-width=&quot;2&quot; class=&quot;i-icon-bg&quot; x=&quot;-5.819999694824219&quot; y=&quot;0&quot; width=&quot;110&quot; height=&quot;2&quot; fill-opacity=&quot;1&quot;&gt;&lt;/rect&gt; &lt;!----&gt; &lt;!----&gt; &lt;/g&gt; &lt;g transform=&quot;translate(5,5)&quot;&gt;&lt;g data-gra=&quot;path-name&quot; fill-rule=&quot;&quot; class=&quot;tp-name&quot;&gt;&lt;g transform=&quot;scale(1)&quot;&gt;&lt;g&gt;&lt;path d=&quot;M36.25-26.85L36.25-18.95Q36.25-9.65 31.85-4.51 27.45 0.63 19.65 0.63L19.65 0.63Q11.87 0.63 7.43-4.46 2.98-9.55 2.92-18.73L2.92-18.73 2.92-26.63Q2.92-36.15 7.33-41.5 11.74-46.85 19.58-46.85L19.58-46.85Q27.29-46.85 31.74-41.59 36.18-36.34 36.25-26.85L36.25-26.85ZM26.88-18.66L26.88-26.69Q26.88-32.94 25.1-35.99 23.33-39.04 19.58-39.04L19.58-39.04Q15.87-39.04 14.09-36.1 12.31-33.17 12.25-27.17L12.25-27.17 12.25-18.95Q12.25-12.89 14.06-10.01 15.87-7.14 19.65-7.14L19.65-7.14Q23.3-7.14 25.07-9.95 26.85-12.76 26.88-18.66L26.88-18.66ZM52.69-46.21L52.69 0 43.35 0 43.35-46.21 52.69-46.21ZM76.08-16.25L69.86-16.25 69.86 0 60.52 0 60.52-46.21 76.27-46.21Q83.12-46.21 87.2-41.96 91.28-37.71 91.28-30.91 91.28-24.12 87.25-20.19 83.22-16.25 76.08-16.25L76.08-16.25ZM69.86-38.44L69.86-24.03 76.27-24.03Q78.93-24.03 80.39-25.77 81.85-27.52 81.85-30.85L81.85-30.85Q81.85-34.31 80.36-36.36 78.87-38.4 76.36-38.44L76.36-38.44 69.86-38.44Z&quot; transform=&quot;translate(-2.9200000762939453, 46.849998474121094)&quot;&gt;&lt;/path&gt;&lt;/g&gt; &lt;!----&gt; &lt;!----&gt; &lt;!----&gt; &lt;!----&gt; &lt;!----&gt; &lt;!----&gt; &lt;!----&gt;&lt;/g&gt;&lt;/g&gt; &lt;!----&gt;&lt;/g&gt;&lt;/g&gt;&lt;/g&gt;&lt;/g&gt;&lt;/g&gt;&lt;defs v-gra=&quot;od&quot;&gt;&lt;/defs&gt;&lt;/svg&gt;" style="rounded=0;whiteSpace=wrap;html=1;" vertex="1" parent="1">
          <mxGeometry x="30" y="50" width="120" height="130" as="geometry" />
        </mxCell>
        <mxCell id="xxX0qOmwGs3klXu2K3Z9-6" value="&lt;svg data-v-0dd9719b=&quot;&quot; version=&quot;1.0&quot; xmlns=&quot;http://www.w3.org/2000/svg&quot; xmlns:xlink=&quot;http://www.w3.org/1999/xlink&quot; width=&quot;100%&quot; height=&quot;100%&quot; viewBox=&quot;0 0 340.000000 250.000000&quot; preserveAspectRatio=&quot;xMidYMid meet&quot; color-interpolation-filters=&quot;sRGB&quot; style=&quot;margin: auto;&quot;&gt; &lt;rect data-v-0dd9719b=&quot;&quot; x=&quot;0&quot; y=&quot;0&quot; width=&quot;100%&quot; height=&quot;100%&quot; fill=&quot;#0077c0&quot; fill-opacity=&quot;1&quot; class=&quot;background&quot;&gt;&lt;/rect&gt; &lt;rect data-v-0dd9719b=&quot;&quot; x=&quot;0&quot; y=&quot;0&quot; width=&quot;100%&quot; height=&quot;100%&quot; fill=&quot;url(#watermark)&quot; fill-opacity=&quot;1&quot; class=&quot;watermarklayer&quot;&gt;&lt;/rect&gt; &lt;g data-v-0dd9719b=&quot;&quot; fill=&quot;#fff&quot; class=&quot;iconbordersvg&quot; transform=&quot;translate(105.91500091552734,63.21065902709961)&quot;&gt;&lt;g&gt;&lt;polyline stroke=&quot;#fff&quot; stroke-width=&quot;2&quot; fill-opacity=&quot;0&quot; points=&quot;36.10499954223633,107.49868154525757 0,107.49868154525757 0,27.959339141845703 46.084999084472656,27.959339141845703&quot;&gt;&lt;/polyline&gt; &lt;polyline stroke=&quot;#fff&quot; stroke-width=&quot;2&quot; fill-opacity=&quot;0&quot; points=&quot;92.06499862670898,107.49868154525757 128.1699981689453,107.49868154525757 128.1699981689453,27.959339141845703 82.08499908447266,27.959339141845703&quot;&gt;&lt;/polyline&gt;&lt;/g&gt; &lt;g&gt;&lt;g&gt;&lt;rect data-gra=&quot;graph-name-bg&quot; stroke-width=&quot;2&quot; class=&quot;i-icon-bg&quot; x=&quot;0&quot; y=&quot;0&quot; width=&quot;128.17000579833984&quot; height=&quot;123.57868194580078&quot; fill-opacity=&quot;0&quot;&gt;&lt;/rect&gt; &lt;!----&gt; &lt;!----&gt; &lt;/g&gt; &lt;g transform=&quot;translate(10,10)&quot;&gt;&lt;g transform=&quot;translate(0.000072479248046875,0)&quot;&gt;&lt;rect fill=&quot;#fff&quot; width=&quot;36.08500289916992&quot; height=&quot;1&quot; fill-opacity=&quot;0&quot; x=&quot;0&quot; y=&quot;17.459339141845703&quot;&gt;&lt;/rect&gt; &lt;g class=&quot;iconsvg-imagesvg&quot; transform=&quot;translate(39.08500289916992,0)&quot;&gt;&lt;g&gt;&lt;!----&gt; &lt;svg filter=&quot;url(#colors7965457392)&quot; x=&quot;0&quot; y=&quot;0&quot; width=&quot;30.00000000000014&quot; height=&quot;35.91868010823512&quot; filtersec=&quot;colorsf1291304835&quot; class=&quot;image-svg-svg primary&quot; style=&quot;overflow: visible;&quot;&gt;&lt;svg xmlns=&quot;http://www.w3.org/2000/svg&quot; viewBox=&quot;101.30999755859375 10.034000396728516 1275.89404296875 1527.6219482421875&quot;&gt;&lt;path fill-rule=&quot;evenodd&quot; clip-rule=&quot;evenodd&quot; fill=&quot;#31469A&quot; d=&quot;M1377.204 1537.656h-303.412V549.933H793.897v987.723H490.336v-800.91H209.24v692.984h80.171V774.287h107.931v763.369H101.31V628.814h496.957v800.916h87.702V332.37H397.342v258.903H289.411V224.439h504.486v217.566h387.826v987.725h87.554V117.965H980.653v286.496H872.722V10.034h504.482z&quot;&gt;&lt;/path&gt;&lt;/svg&gt;&lt;/svg&gt; &lt;defs&gt;&lt;filter id=&quot;colors7965457392&quot;&gt;&lt;feColorMatrix type=&quot;matrix&quot; values=&quot;0 0 0 0 0.99609375  0 0 0 0 0.99609375  0 0 0 0 0.99609375  0 0 0 1 0&quot; class=&quot;icon-fecolormatrix&quot;&gt;&lt;/feColorMatrix&gt;&lt;/filter&gt; &lt;filter id=&quot;colorsf1291304835&quot;&gt;&lt;feColorMatrix type=&quot;matrix&quot; values=&quot;0 0 0 0 0.99609375  0 0 0 0 0.99609375  0 0 0 0 0.99609375  0 0 0 1 0&quot; class=&quot;icon-fecolormatrix&quot;&gt;&lt;/feColorMatrix&gt;&lt;/filter&gt; &lt;filter id=&quot;colorsb8317324211&quot;&gt;&lt;feColorMatrix type=&quot;matrix&quot; values=&quot;0 0 0 0 0  0 0 0 0 0  0 0 0 0 0  0 0 0 1 0&quot; class=&quot;icon-fecolormatrix&quot;&gt;&lt;/feColorMatrix&gt;&lt;/filter&gt;&lt;/defs&gt;&lt;/g&gt;&lt;/g&gt; &lt;rect fill=&quot;#fff&quot; width=&quot;36.08500289916992&quot; height=&quot;1&quot; fill-opacity=&quot;0&quot; x=&quot;72.08485221862793&quot; y=&quot;17.459339141845703&quot;&gt;&lt;/rect&gt;&lt;/g&gt; &lt;g transform=&quot;translate(0,38.918678283691406)&quot;&gt;&lt;g data-gra=&quot;path-name&quot; fill-rule=&quot;&quot; class=&quot;tp-name&quot; transform=&quot;translate(0,0)&quot;&gt;&lt;g transform=&quot;scale(1)&quot;&gt;&lt;g&gt;&lt;path d=&quot;M25.48-44.52C12.48-44.52 2.27-34.45 2.27-21.71 2.27-9.04 12.48 0.98 25.48 0.98 38.48 0.98 48.69-9.04 48.69-21.71 48.69-34.45 38.48-44.52 25.48-44.52ZM25.48-8.84C18.39-8.84 13-14.3 13-21.71 13-29.19 18.39-34.71 25.48-34.71 32.56-34.71 37.96-29.19 37.96-21.71 37.96-14.3 32.56-8.84 25.48-8.84ZM65.45 0L65.45-43.55 54.73-43.55 54.73 0ZM72.99-43.55L72.99 0 83.72 0 83.72-13.33 93.99-13.33C104.06-13.33 110.44-19.37 110.44-28.54 110.44-37.51 104.26-43.55 94.44-43.55ZM83.72-22.3L83.72-34.38 93.21-34.38C97.37-34.38 99.91-31.92 99.91-28.41 99.91-24.7 97.37-22.3 93.21-22.3Z&quot; transform=&quot;translate(-2.2699999809265137, 44.52000045776367)&quot;&gt;&lt;/path&gt;&lt;/g&gt; &lt;!----&gt; &lt;!----&gt; &lt;!----&gt; &lt;!----&gt; &lt;!----&gt; &lt;!----&gt; &lt;!----&gt;&lt;/g&gt;&lt;/g&gt; &lt;g transform=&quot;translate(29.105003356933594,52.5)&quot;&gt;&lt;g data-gra=&quot;path-slogan&quot; fill-rule=&quot;&quot; class=&quot;tp-slogan&quot; fill=&quot;#fff&quot; transform=&quot;translate(0,0)&quot;&gt;&lt;!----&gt; &lt;!----&gt; &lt;g mask=&quot;url(#a62298ad-7f47-4877-9a53-c24b36d5dea0)&quot;&gt;&lt;g&gt;&lt;rect data-gra=&quot;graph-name-bg&quot; stroke-width=&quot;2&quot; class=&quot;i-icon-bg&quot; x=&quot;0&quot; y=&quot;0&quot; width=&quot;49.959999084472656&quot; height=&quot;12.160000801086426&quot; fill-opacity=&quot;1&quot;&gt;&lt;/rect&gt; &lt;!----&gt; &lt;!----&gt; &lt;/g&gt; &lt;g transform=&quot;translate(5,2)&quot;&gt;&lt;g transform=&quot;scale(1, 1)&quot; fill=&quot;#0077c0&quot;&gt;&lt;g transform=&quot;scale(1)&quot;&gt;&lt;path d=&quot;M0.50-1.02L1.10-1.72Q1.52-1.27 2.09-1.00Q2.66-0.73 3.28-0.73L3.28-0.73Q4.06-0.73 4.49-1.09Q4.92-1.44 4.92-2.02L4.92-2.02Q4.92-2.32 4.82-2.53Q4.72-2.74 4.54-2.89Q4.37-3.04 4.13-3.16Q3.89-3.28 3.61-3.41L3.61-3.41L2.48-3.90Q2.21-4.02 1.92-4.19Q1.63-4.36 1.40-4.60Q1.18-4.84 1.03-5.17Q0.89-5.50 0.89-5.93L0.89-5.93Q0.89-6.37 1.07-6.76Q1.26-7.14 1.59-7.42Q1.92-7.70 2.37-7.86Q2.82-8.02 3.36-8.02L3.36-8.02Q4.07-8.02 4.67-7.75Q5.27-7.48 5.69-7.04L5.69-7.04L5.15-6.40Q4.79-6.74 4.35-6.94Q3.91-7.14 3.36-7.14L3.36-7.14Q2.70-7.14 2.30-6.83Q1.90-6.53 1.90-5.99L1.90-5.99Q1.90-5.70 2.01-5.50Q2.12-5.30 2.32-5.15Q2.51-5.00 2.74-4.89Q2.96-4.78 3.20-4.68L3.20-4.68L4.32-4.20Q4.66-4.06 4.96-3.87Q5.26-3.68 5.47-3.44Q5.69-3.19 5.81-2.86Q5.94-2.53 5.94-2.10L5.94-2.10Q5.94-1.63 5.75-1.22Q5.57-0.82 5.22-0.51Q4.87-0.20 4.38-0.03Q3.89 0.14 3.26 0.14L3.26 0.14Q2.44 0.14 1.73-0.17Q1.02-0.48 0.50-1.02L0.50-1.02ZM7.49 0L7.49-7.87L8.48-7.87L8.48-0.85L11.93-0.85L11.93 0L7.49 0ZM15.91 0.14L15.91 0.14Q15.17 0.14 14.55-0.14Q13.93-0.43 13.49-0.97Q13.04-1.50 12.80-2.26Q12.55-3.02 12.55-3.97L12.55-3.97Q12.55-4.92 12.80-5.67Q13.04-6.42 13.49-6.94Q13.93-7.46 14.55-7.74Q15.17-8.02 15.91-8.02L15.91-8.02Q16.66-8.02 17.27-7.73Q17.89-7.45 18.34-6.93Q18.79-6.41 19.04-5.66Q19.28-4.91 19.28-3.97L19.28-3.97Q19.28-3.02 19.04-2.26Q18.79-1.50 18.34-0.97Q17.89-0.43 17.27-0.14Q16.66 0.14 15.91 0.14ZM15.91-0.73L15.91-0.73Q16.44-0.73 16.87-0.96Q17.29-1.19 17.60-1.61Q17.90-2.04 18.07-2.63Q18.24-3.23 18.24-3.97L18.24-3.97Q18.24-4.70 18.07-5.29Q17.90-5.88 17.60-6.29Q17.29-6.70 16.87-6.92Q16.44-7.14 15.91-7.14L15.91-7.14Q15.38-7.14 14.96-6.92Q14.53-6.70 14.23-6.29Q13.92-5.88 13.75-5.29Q13.58-4.70 13.58-3.97L13.58-3.97Q13.58-3.23 13.75-2.63Q13.92-2.04 14.23-1.61Q14.53-1.19 14.96-0.96Q15.38-0.73 15.91-0.73ZM20.52-3.94L20.52-3.94Q20.52-4.88 20.79-5.64Q21.06-6.40 21.55-6.92Q22.03-7.45 22.69-7.73Q23.35-8.02 24.14-8.02L24.14-8.02Q24.96-8.02 25.51-7.71Q26.05-7.40 26.40-7.04L26.40-7.04L25.84-6.41Q25.54-6.72 25.15-6.93Q24.76-7.14 24.16-7.14L24.16-7.14Q23.56-7.14 23.08-6.92Q22.60-6.70 22.26-6.28Q21.92-5.87 21.74-5.28Q21.55-4.69 21.55-3.96L21.55-3.96Q21.55-3.22 21.73-2.62Q21.90-2.03 22.23-1.61Q22.56-1.19 23.05-0.96Q23.53-0.73 24.17-0.73L24.17-0.73Q24.59-0.73 24.97-0.86Q25.34-0.98 25.58-1.20L25.58-1.20L25.58-3.25L23.92-3.25L23.92-4.08L26.50-4.08L26.50-0.77Q26.11-0.37 25.48-0.11Q24.85 0.14 24.06 0.14L24.06 0.14Q23.28 0.14 22.63-0.13Q21.98-0.41 21.52-0.93Q21.05-1.45 20.78-2.21Q20.52-2.98 20.52-3.94ZM29.32-3.20L31.68-3.20L31.31-4.40Q31.09-5.06 30.90-5.72Q30.71-6.37 30.52-7.06L30.52-7.06L30.47-7.06Q30.29-6.37 30.10-5.72Q29.90-5.06 29.69-4.40L29.69-4.40L29.32-3.20ZM32.68 0L31.93-2.40L29.06-2.40L28.31 0L27.29 0L29.95-7.87L31.08-7.87L33.74 0L32.68 0ZM34.86 0L34.86-7.87L35.89-7.87L38.74-2.93L39.59-1.30L39.64-1.30Q39.60-1.90 39.56-2.54Q39.52-3.18 39.52-3.80L39.52-3.80L39.52-7.87L40.46-7.87L40.46 0L39.43 0L36.58-4.96L35.72-6.58L35.68-6.58Q35.72-5.98 35.77-5.36Q35.81-4.74 35.81-4.12L35.81-4.12L35.81 0L34.86 0Z&quot; transform=&quot;translate(-0.504, 8.016)&quot;&gt;&lt;/path&gt;&lt;/g&gt;&lt;/g&gt;&lt;/g&gt;&lt;/g&gt;&lt;/g&gt;&lt;/g&gt;&lt;/g&gt;&lt;/g&gt;&lt;/g&gt;&lt;/g&gt;&lt;mask id=&quot;a62298ad-7f47-4877-9a53-c24b36d5dea0&quot;&gt;&lt;g fill=&quot;white&quot;&gt;&lt;rect data-gra=&quot;graph-name-bg&quot; stroke-width=&quot;2&quot; class=&quot;i-icon-bg&quot; x=&quot;0&quot; y=&quot;0&quot; width=&quot;49.959999084472656&quot; height=&quot;12.160000801086426&quot; fill-opacity=&quot;1&quot;&gt;&lt;/rect&gt;   &lt;/g&gt; &lt;g transform=&quot;translate(5,2)&quot; fill=&quot;black&quot;&gt;&lt;g transform=&quot;scale(1, 1)&quot;&gt;&lt;g transform=&quot;scale(1)&quot;&gt;&lt;path d=&quot;M0.50-1.02L1.10-1.72Q1.52-1.27 2.09-1.00Q2.66-0.73 3.28-0.73L3.28-0.73Q4.06-0.73 4.49-1.09Q4.92-1.44 4.92-2.02L4.92-2.02Q4.92-2.32 4.82-2.53Q4.72-2.74 4.54-2.89Q4.37-3.04 4.13-3.16Q3.89-3.28 3.61-3.41L3.61-3.41L2.48-3.90Q2.21-4.02 1.92-4.19Q1.63-4.36 1.40-4.60Q1.18-4.84 1.03-5.17Q0.89-5.50 0.89-5.93L0.89-5.93Q0.89-6.37 1.07-6.76Q1.26-7.14 1.59-7.42Q1.92-7.70 2.37-7.86Q2.82-8.02 3.36-8.02L3.36-8.02Q4.07-8.02 4.67-7.75Q5.27-7.48 5.69-7.04L5.69-7.04L5.15-6.40Q4.79-6.74 4.35-6.94Q3.91-7.14 3.36-7.14L3.36-7.14Q2.70-7.14 2.30-6.83Q1.90-6.53 1.90-5.99L1.90-5.99Q1.90-5.70 2.01-5.50Q2.12-5.30 2.32-5.15Q2.51-5.00 2.74-4.89Q2.96-4.78 3.20-4.68L3.20-4.68L4.32-4.20Q4.66-4.06 4.96-3.87Q5.26-3.68 5.47-3.44Q5.69-3.19 5.81-2.86Q5.94-2.53 5.94-2.10L5.94-2.10Q5.94-1.63 5.75-1.22Q5.57-0.82 5.22-0.51Q4.87-0.20 4.38-0.03Q3.89 0.14 3.26 0.14L3.26 0.14Q2.44 0.14 1.73-0.17Q1.02-0.48 0.50-1.02L0.50-1.02ZM7.49 0L7.49-7.87L8.48-7.87L8.48-0.85L11.93-0.85L11.93 0L7.49 0ZM15.91 0.14L15.91 0.14Q15.17 0.14 14.55-0.14Q13.93-0.43 13.49-0.97Q13.04-1.50 12.80-2.26Q12.55-3.02 12.55-3.97L12.55-3.97Q12.55-4.92 12.80-5.67Q13.04-6.42 13.49-6.94Q13.93-7.46 14.55-7.74Q15.17-8.02 15.91-8.02L15.91-8.02Q16.66-8.02 17.27-7.73Q17.89-7.45 18.34-6.93Q18.79-6.41 19.04-5.66Q19.28-4.91 19.28-3.97L19.28-3.97Q19.28-3.02 19.04-2.26Q18.79-1.50 18.34-0.97Q17.89-0.43 17.27-0.14Q16.66 0.14 15.91 0.14ZM15.91-0.73L15.91-0.73Q16.44-0.73 16.87-0.96Q17.29-1.19 17.60-1.61Q17.90-2.04 18.07-2.63Q18.24-3.23 18.24-3.97L18.24-3.97Q18.24-4.70 18.07-5.29Q17.90-5.88 17.60-6.29Q17.29-6.70 16.87-6.92Q16.44-7.14 15.91-7.14L15.91-7.14Q15.38-7.14 14.96-6.92Q14.53-6.70 14.23-6.29Q13.92-5.88 13.75-5.29Q13.58-4.70 13.58-3.97L13.58-3.97Q13.58-3.23 13.75-2.63Q13.92-2.04 14.23-1.61Q14.53-1.19 14.96-0.96Q15.38-0.73 15.91-0.73ZM20.52-3.94L20.52-3.94Q20.52-4.88 20.79-5.64Q21.06-6.40 21.55-6.92Q22.03-7.45 22.69-7.73Q23.35-8.02 24.14-8.02L24.14-8.02Q24.96-8.02 25.51-7.71Q26.05-7.40 26.40-7.04L26.40-7.04L25.84-6.41Q25.54-6.72 25.15-6.93Q24.76-7.14 24.16-7.14L24.16-7.14Q23.56-7.14 23.08-6.92Q22.60-6.70 22.26-6.28Q21.92-5.87 21.74-5.28Q21.55-4.69 21.55-3.96L21.55-3.96Q21.55-3.22 21.73-2.62Q21.90-2.03 22.23-1.61Q22.56-1.19 23.05-0.96Q23.53-0.73 24.17-0.73L24.17-0.73Q24.59-0.73 24.97-0.86Q25.34-0.98 25.58-1.20L25.58-1.20L25.58-3.25L23.92-3.25L23.92-4.08L26.50-4.08L26.50-0.77Q26.11-0.37 25.48-0.11Q24.85 0.14 24.06 0.14L24.06 0.14Q23.28 0.14 22.63-0.13Q21.98-0.41 21.52-0.93Q21.05-1.45 20.78-2.21Q20.52-2.98 20.52-3.94ZM29.32-3.20L31.68-3.20L31.31-4.40Q31.09-5.06 30.90-5.72Q30.71-6.37 30.52-7.06L30.52-7.06L30.47-7.06Q30.29-6.37 30.10-5.72Q29.90-5.06 29.69-4.40L29.69-4.40L29.32-3.20ZM32.68 0L31.93-2.40L29.06-2.40L28.31 0L27.29 0L29.95-7.87L31.08-7.87L33.74 0L32.68 0ZM34.86 0L34.86-7.87L35.89-7.87L38.74-2.93L39.59-1.30L39.64-1.30Q39.60-1.90 39.56-2.54Q39.52-3.18 39.52-3.80L39.52-3.80L39.52-7.87L40.46-7.87L40.46 0L39.43 0L36.58-4.96L35.72-6.58L35.68-6.58Q35.72-5.98 35.77-5.36Q35.81-4.74 35.81-4.12L35.81-4.12L35.81 0L34.86 0Z&quot; transform=&quot;translate(-0.504, 8.016)&quot;&gt;&lt;/path&gt;&lt;/g&gt;&lt;/g&gt;&lt;/g&gt;&lt;/mask&gt;&lt;defs v-gra=&quot;od&quot;&gt;&lt;/defs&gt;&lt;/svg&gt;" style="rounded=0;whiteSpace=wrap;html=1;" vertex="1" parent="1">
          <mxGeometry x="180" y="70" width="150" height="80" as="geometry" />
        </mxCell>
        <mxCell id="xxX0qOmwGs3klXu2K3Z9-7" value="&lt;svg data-v-0dd9719b=&quot;&quot; version=&quot;1.0&quot; xmlns=&quot;http://www.w3.org/2000/svg&quot; xmlns:xlink=&quot;http://www.w3.org/1999/xlink&quot; width=&quot;100%&quot; height=&quot;100%&quot; viewBox=&quot;0 0 340.000000 250.000000&quot; preserveAspectRatio=&quot;xMidYMid meet&quot; color-interpolation-filters=&quot;sRGB&quot; style=&quot;margin: auto;&quot;&gt; &lt;rect data-v-0dd9719b=&quot;&quot; x=&quot;0&quot; y=&quot;0&quot; width=&quot;100%&quot; height=&quot;100%&quot; fill=&quot;#ffffff&quot; fill-opacity=&quot;1&quot; class=&quot;background&quot;&gt;&lt;/rect&gt; &lt;rect data-v-0dd9719b=&quot;&quot; x=&quot;0&quot; y=&quot;0&quot; width=&quot;100%&quot; height=&quot;100%&quot; fill=&quot;url(#watermark)&quot; fill-opacity=&quot;1&quot; class=&quot;watermarklayer&quot;&gt;&lt;/rect&gt; &lt;g data-v-0dd9719b=&quot;&quot; fill=&quot;#35495e&quot; class=&quot;icon-text-wrapper icon-svg-group iconsvg&quot; transform=&quot;translate(89.86499786376953,95)&quot;&gt;&lt;g class=&quot;iconsvg-imagesvg&quot; transform=&quot;translate(0,0)&quot;&gt;&lt;g&gt;&lt;rect fill=&quot;#35495e&quot; fill-opacity=&quot;0&quot; stroke-width=&quot;2&quot; x=&quot;0&quot; y=&quot;0&quot; width=&quot;60&quot; height=&quot;60&quot; class=&quot;image-rect&quot;&gt;&lt;/rect&gt; &lt;svg filter=&quot;url(#colors4018428780)&quot; x=&quot;0&quot; y=&quot;0&quot; width=&quot;60&quot; height=&quot;60&quot; filtersec=&quot;colorsf5800196715&quot; class=&quot;image-svg-svg primary&quot; style=&quot;overflow: visible;&quot;&gt;&lt;svg xmlns=&quot;http://www.w3.org/2000/svg&quot; viewBox=&quot;0.7999999999999998 0.7999999999999998 89.3 89.3&quot;&gt;&lt;path d=&quot;M88.1 45.5L45.5 88.1 2.8 45.5 45.5 2.8l42.6 42.7zM81 38.4l-7.1 7.1L45.5 17 9.9 52.6m64 7.1L45.5 31.3 17 59.7m14.3 14.2l21.3-21.3-7.1-7.1-21.3 21.3m42.6 0l-7.1-7.1L38.4 81&quot; fill=&quot;none&quot; stroke=&quot;#333&quot; stroke-width=&quot;4&quot; stroke-miterlimit=&quot;10&quot;&gt;&lt;/path&gt;&lt;/svg&gt;&lt;/svg&gt; &lt;defs&gt;&lt;filter id=&quot;colors4018428780&quot;&gt;&lt;feColorMatrix type=&quot;matrix&quot; values=&quot;0 0 0 0 0.25390625  0 0 0 0 0.71875  0 0 0 0 0.51171875  0 0 0 1 0&quot; class=&quot;icon-fecolormatrix&quot;&gt;&lt;/feColorMatrix&gt;&lt;/filter&gt; &lt;filter id=&quot;colorsf5800196715&quot;&gt;&lt;feColorMatrix type=&quot;matrix&quot; values=&quot;0 0 0 0 0.99609375  0 0 0 0 0.99609375  0 0 0 0 0.99609375  0 0 0 1 0&quot; class=&quot;icon-fecolormatrix&quot;&gt;&lt;/feColorMatrix&gt;&lt;/filter&gt; &lt;filter id=&quot;colorsb8380365540&quot;&gt;&lt;feColorMatrix type=&quot;matrix&quot; values=&quot;0 0 0 0 0  0 0 0 0 0  0 0 0 0 0  0 0 0 1 0&quot; class=&quot;icon-fecolormatrix&quot;&gt;&lt;/feColorMatrix&gt;&lt;/filter&gt;&lt;/defs&gt;&lt;/g&gt;&lt;/g&gt; &lt;g transform=&quot;translate(67,10.825000762939453)&quot;&gt;&lt;g data-gra=&quot;path-name&quot; fill-rule=&quot;&quot; class=&quot;tp-name iconsvg-namesvg&quot;&gt;&lt;g transform=&quot;scale(1)&quot;&gt;&lt;g&gt;&lt;path d=&quot;M21.32 0.84Q11.63 0.84 6.79-3.74 1.95-8.32 1.95-18.46L1.95-18.46Q1.95-28.41 7.28-32.95 12.61-37.51 21.39-37.51L21.39-37.51Q39.84-37.51 39.84-19.11L39.84-19.11Q39.84-9.81 35.33-4.49 30.81 0.84 21.32 0.84L21.32 0.84ZM21.06-6.83Q22.88-6.83 24.12-7.44 25.35-8.06 26.07-9.62L26.07-9.62Q27.43-12.29 27.43-18.33L27.43-18.33Q27.43-24.25 26.07-26.91L26.07-26.91Q24.7-29.64 21.06-29.77L21.06-29.77Q19.7-29.77 18.23-29.48 16.77-29.19 16.38-28.67L16.38-28.67Q15.6-27.76 15.18-24.8 14.76-21.84 14.76-18.33L14.76-18.33Q14.76-12.87 15.79-10.34L15.79-10.34Q16.51-8.45 17.81-7.64 19.11-6.83 21.06-6.83L21.06-6.83ZM45.11 0L45.11-37.05 56.81-37.05 56.81 0 45.11 0ZM78.33-37.25Q83.59-37.25 87.23-36.27 90.87-35.3 93.05-32.53 95.22-29.77 95.22-24.64L95.22-24.64Q95.22-22.36 94.54-19.99 93.86-17.62 92.85-15.86 91.84-14.11 91.06-13.59L91.06-13.59Q90.16-12.94 87.03-12.58 83.91-12.22 79.69-12.22L79.69-12.22Q78.19-12.22 75.08-12.35L75.08-12.35 75.08 0 63.38 0 63.38-37.05Q70.2-37.25 78.33-37.25L78.33-37.25ZM83.2-20.54Q83.85-21.39 83.85-23.92L83.85-23.92Q83.85-27.23 82.45-28.6 81.06-29.96 77.61-29.96L77.61-29.96Q76.44-29.96 75.08-29.77L75.08-29.77 75.08-19.89Q75.72-19.82 77.61-19.82L77.61-19.82Q82.62-19.82 83.2-20.54L83.2-20.54Z&quot; transform=&quot;translate(-1.9500000476837158, 37.5099983215332)&quot;&gt;&lt;/path&gt;&lt;/g&gt; &lt;!----&gt; &lt;!----&gt; &lt;!----&gt; &lt;!----&gt; &lt;!----&gt; &lt;!----&gt; &lt;!----&gt;&lt;/g&gt;&lt;/g&gt; &lt;!----&gt;&lt;/g&gt;&lt;/g&gt;&lt;defs v-gra=&quot;od&quot;&gt;&lt;/defs&gt;&lt;/svg&gt;" style="rounded=0;whiteSpace=wrap;html=1;" vertex="1" parent="1">
          <mxGeometry x="370" y="64" width="150" height="86" as="geometry" />
        </mxCell>
        <mxCell id="xxX0qOmwGs3klXu2K3Z9-8" value="&lt;svg data-v-0dd9719b=&quot;&quot; version=&quot;1.0&quot; xmlns=&quot;http://www.w3.org/2000/svg&quot; xmlns:xlink=&quot;http://www.w3.org/1999/xlink&quot; width=&quot;100%&quot; height=&quot;100%&quot; viewBox=&quot;0 0 340.000000 250.000000&quot; preserveAspectRatio=&quot;xMidYMid meet&quot; color-interpolation-filters=&quot;sRGB&quot; style=&quot;margin: auto;&quot;&gt; &lt;rect data-v-0dd9719b=&quot;&quot; x=&quot;0&quot; y=&quot;0&quot; width=&quot;100%&quot; height=&quot;100%&quot; fill=&quot;#fff&quot; fill-opacity=&quot;1&quot; class=&quot;background&quot;&gt;&lt;/rect&gt; &lt;rect data-v-0dd9719b=&quot;&quot; x=&quot;0&quot; y=&quot;0&quot; width=&quot;100%&quot; height=&quot;100%&quot; fill=&quot;url(#watermark)&quot; fill-opacity=&quot;1&quot; class=&quot;watermarklayer&quot;&gt;&lt;/rect&gt; &lt;g data-v-0dd9719b=&quot;&quot; fill=&quot;#333&quot; class=&quot;icon-text-wrapper icon-svg-group iconsvg&quot; transform=&quot;translate(92.91500091552734,92.6413803100586)&quot;&gt;&lt;g class=&quot;iconsvg-imagesvg&quot; transform=&quot;translate(0,0)&quot;&gt;&lt;g&gt;&lt;rect fill=&quot;#333&quot; fill-opacity=&quot;0&quot; stroke-width=&quot;2&quot; x=&quot;0&quot; y=&quot;0&quot; width=&quot;60.00000000000001&quot; height=&quot;64.7172395940072&quot; class=&quot;image-rect&quot;&gt;&lt;/rect&gt; &lt;svg x=&quot;0&quot; y=&quot;0&quot; width=&quot;60.00000000000001&quot; height=&quot;64.7172395940072&quot; filtersec=&quot;colorsb4041250677&quot; class=&quot;image-svg-svg primary&quot; style=&quot;overflow: visible;&quot;&gt;&lt;svg xmlns=&quot;http://www.w3.org/2000/svg&quot; viewBox=&quot;-0.009205232374370098 -0.07867182046175003 169.2021942138672 182.50457763671875&quot;&gt;&lt;path d=&quot;M.13 52.18c0-3.15.06-6.3 0-9.44a2.61 2.61 0 0 1 1.49-2.66q17.14-9.85 34.28-19.77C41.72 17 47.56 13.62 53.35 10.2a2.58 2.58 0 0 1 3 0q37.47 21.71 75 43.35c.46.27 1.23.38 1.24 1s-.82.83-1.33 1.12c-6.71 3.9-13.45 7.77-20.15 11.71a2.31 2.31 0 0 1-2.69 0q-26.08-15.17-52.2-30.27a2.33 2.33 0 0 0-2.7 0Q39.28 45.4 25 53.58a2.76 2.76 0 0 0-1.6 2.78c.06 6.17 0 12.34 0 18.51.03 2.13-.04 2.13-1.8 1.13-6.67-3.85-13.34-7.73-20-11.53A2.46 2.46 0 0 1 .11 62c.07-3.28.02-6.55.02-9.82z&quot; fill=&quot;#f26626&quot;&gt;&lt;/path&gt;&lt;path d=&quot;M169.17 63v29.63a3 3 0 0 1-1.71 3.09q-33.13 19.05-66.22 38.19c-2.94 1.69-5.9 3.35-8.8 5.11-1.29.79-1.53.4-1.53-.92v-23.89a2.2 2.2 0 0 1 1.39-2.13c16.24-9.36 32.41-18.88 48.77-28 3.63-2 5.08-4.13 4.9-8.38-.39-9.37-.17-18.76-.07-28.14a3.81 3.81 0 0 0-2.27-3.89c-5.29-2.92-10.49-6-15.73-9-1.68-1-1.68-1 .07-2 6.67-3.86 13.35-7.71 20-11.61a2.63 2.63 0 0 1 3-.08q8.44 5 17 9.81a2.33 2.33 0 0 1 1.15 2.46q.03 14.81.05 29.75z&quot; fill=&quot;#f26626&quot;&gt;&lt;/path&gt;&lt;path d=&quot;M61.53 105.87v29.82a2.77 2.77 0 0 0 1.57 2.79q14.15 8.09 28.2 16.31a2.87 2.87 0 0 0 3.35 0c5.36-3.19 10.81-6.21 16.17-9.39 1.49-.89 1.73-.47 1.73 1q-.06 11.76 0 23.52a2.23 2.23 0 0 1-1.26 2.22q-8.69 4.95-17.32 10a2 2 0 0 1-2.36-.22q-20-11.6-40.06-23.15c-4-2.29-7.89-4.6-11.87-6.83a2.5 2.5 0 0 1-1.46-2.48q.06-43.44 0-86.87c0-1.52.22-1.87 1.66-1q10.05 5.91 20.19 11.68a2.63 2.63 0 0 1 1.5 2.64q-.08 14.95-.04 29.96z&quot; fill=&quot;#f26626&quot;&gt;&lt;/path&gt;&lt;path d=&quot;M23.44 105.69v10.37c0 1.39-.43 1.45-1.5.82q-10.32-6-20.69-11.93A2.29 2.29 0 0 1 0 102.7V82.33c0-1.55.44-1.66 1.71-.92q10.14 6 20.35 11.77a2.31 2.31 0 0 1 1.39 2.32c-.08 3.4 0 6.79 0 10.19zM134.81 11.66c-3.57 2.09-7 4.08-10.37 6-3.9 2.26-7.82 4.46-11.7 6.74a2 2 0 0 1-2.33 0q-8.85-5.2-17.79-10.27c-1.14-.65-1.53-1-.06-1.86 6.92-3.92 13.8-7.92 20.68-11.91a1.82 1.82 0 0 1 2.05-.22l18.87 11c.16.15.3.27.65.52zM127.26 162.63v-18.18-7.22a2 2 0 0 1 1.14-2.06c5.85-3.33 11.65-6.72 17.46-10.09 1.68-1 1.79-.92 1.79 1v23.33c0 .88 0 1.67-.94 2.21-6.17 3.51-12.31 7.07-18.46 10.6a7.33 7.33 0 0 1-.99.41z&quot; fill=&quot;#fdde1a&quot;&gt;&lt;/path&gt;&lt;/svg&gt;&lt;/svg&gt; &lt;!----&gt;&lt;/g&gt;&lt;/g&gt; &lt;g transform=&quot;translate(67,10.578619003295898)&quot;&gt;&lt;g data-gra=&quot;path-name&quot; fill-rule=&quot;&quot; class=&quot;tp-name iconsvg-namesvg&quot;&gt;&lt;g transform=&quot;scale(1)&quot;&gt;&lt;g&gt;&lt;path d=&quot;M24.25 0.33Q19.82 0.33 15.89-1.33 11.96-2.99 8.97-6.04L8.97-6.04Q5.98-9.04 4.29-13.03 2.6-17.03 2.6-21.45L2.6-21.45Q2.6-25.87 4.26-29.8 5.92-33.73 8.97-36.79L8.97-36.79Q11.96-39.78 15.89-41.47 19.82-43.16 24.25-43.16L24.25-43.16Q28.67-43.16 32.63-41.47 36.59-39.78 39.59-36.79L39.59-36.79Q42.58-33.8 44.27-29.84 45.95-25.87 45.95-21.45L45.95-21.45Q45.95-17.03 44.27-13.03 42.58-9.04 39.59-6.04L39.59-6.04Q36.59-3.06 32.63-1.36 28.67 0.33 24.25 0.33L24.25 0.33ZM24.25-37.25Q21.06-37.25 18.17-36.04 15.28-34.84 13.07-32.63L13.07-32.63Q10.86-30.42 9.65-27.53 8.45-24.64 8.45-21.45L8.45-21.45Q8.45-18.2 9.69-15.24 10.92-12.29 13.07-10.14L13.07-10.14Q15.28-7.93 18.17-6.73 21.06-5.53 24.25-5.53L24.25-5.53Q27.43-5.53 30.32-6.73 33.22-7.93 35.43-10.14L35.43-10.14Q37.57-12.29 38.8-15.24 40.04-18.2 40.04-21.45L40.04-21.45Q40.04-24.64 38.84-27.53 37.63-30.42 35.43-32.63L35.43-32.63Q33.22-34.84 30.32-36.04 27.43-37.25 24.25-37.25L24.25-37.25ZM57.27 0L51.8 0 51.8-43.23 57.27-43.23 57.27 0ZM75.92-15.02L69.48-15.02 69.48 0 63.77 0 63.77-43.23 75.92-43.23Q78.65-43.23 81.19-42.15 83.72-41.08 85.67-39.13L85.67-39.13Q87.62-37.12 88.69-34.55 89.77-31.98 89.77-29.12L89.77-29.12Q89.77-26.26 88.69-23.69 87.62-21.13 85.67-19.18L85.67-19.18Q83.72-17.23 81.19-16.12 78.65-15.02 75.92-15.02L75.92-15.02ZM75.92-37.31L69.48-37.31 69.48-20.8 75.92-20.8Q79.3-20.8 81.64-23.27L81.64-23.27Q84.05-25.68 84.05-29.12L84.05-29.12Q84.05-32.5 81.64-34.91L81.64-34.91Q79.23-37.31 75.92-37.31L75.92-37.31Z&quot; transform=&quot;translate(-2.5999999046325684, 43.22999954223633)&quot;&gt;&lt;/path&gt;&lt;/g&gt; &lt;!----&gt; &lt;!----&gt; &lt;!----&gt; &lt;!----&gt; &lt;!----&gt; &lt;!----&gt; &lt;!----&gt;&lt;/g&gt;&lt;/g&gt; &lt;!----&gt;&lt;/g&gt;&lt;/g&gt;&lt;defs v-gra=&quot;od&quot;&gt;&lt;/defs&gt;&lt;/svg&gt;" style="rounded=0;whiteSpace=wrap;html=1;" vertex="1" parent="1">
          <mxGeometry x="570" y="60" width="280" height="140" as="geometry" />
        </mxCell>
        <mxCell id="xxX0qOmwGs3klXu2K3Z9-13" value="&lt;svg data-v-0dd9719b=&quot;&quot; version=&quot;1.0&quot; xmlns=&quot;http://www.w3.org/2000/svg&quot; xmlns:xlink=&quot;http://www.w3.org/1999/xlink&quot; width=&quot;100%&quot; height=&quot;100%&quot; viewBox=&quot;0 0 340.000000 250.000000&quot; preserveAspectRatio=&quot;xMidYMid meet&quot; color-interpolation-filters=&quot;sRGB&quot; style=&quot;margin: auto;&quot;&gt; &lt;rect data-v-0dd9719b=&quot;&quot; x=&quot;0&quot; y=&quot;0&quot; width=&quot;100%&quot; height=&quot;100%&quot; fill=&quot;#ffffff&quot; fill-opacity=&quot;1&quot; class=&quot;background&quot;&gt;&lt;/rect&gt; &lt;rect data-v-0dd9719b=&quot;&quot; x=&quot;0&quot; y=&quot;0&quot; width=&quot;100%&quot; height=&quot;100%&quot; fill=&quot;url(#watermark)&quot; fill-opacity=&quot;1&quot; class=&quot;watermarklayer&quot;&gt;&lt;/rect&gt; &lt;g data-v-0dd9719b=&quot;&quot; fill=&quot;#1582c7&quot; class=&quot;pmspacesvg&quot; transform=&quot;translate(98.46050262451172,90.80500030517578)&quot;&gt;&lt;!----&gt; &lt;g&gt;&lt;g mask=&quot;url(#532fce57-1d88-4c79-b72a-7c59b8a8f542)&quot;&gt;&lt;g&gt;&lt;rect data-gra=&quot;graph-name&quot; fill=&quot;#1582c7&quot; x=&quot;0&quot; y=&quot;0&quot; width=&quot;131.0199966430664&quot; height=&quot;68.38999938964844&quot; transform=&quot;skewX(10)&quot;&gt;&lt;/rect&gt;&lt;/g&gt; &lt;g data-gra=&quot;path-name&quot; fill-rule=&quot;&quot; class=&quot;tp-name&quot; transform=&quot;translate(16.029501051515236,10)&quot;&gt;&lt;g transform=&quot;scale(1)&quot;&gt;&lt;g&gt;&lt;path d=&quot;M50.64-23.69L50.64-23.69Q50.64-18.56 48.86-14.14 47.09-9.72 43.88-6.45 40.66-3.19 36.12-1.33 31.59 0.52 26.07 0.52L26.07 0.52Q20.54 0.52 15.99-1.33 11.44-3.19 8.21-6.45 4.97-9.72 3.2-14.14 1.43-18.56 1.43-23.69L1.43-23.69Q1.43-28.83 3.2-33.25 4.97-37.67 8.21-40.92 11.44-44.17 15.99-46.02 20.54-47.87 26.07-47.87L26.07-47.87Q31.59-47.87 36.12-46 40.66-44.13 43.88-40.88 47.09-37.63 48.86-33.22 50.64-28.8 50.64-23.69ZM39.39-23.69L39.39-23.69Q39.39-27.2 38.48-30.01 37.57-32.83 35.86-34.77 34.16-36.73 31.69-37.77 29.22-38.8 26.07-38.8L26.07-38.8Q22.88-38.8 20.39-37.77 17.91-36.73 16.2-34.77 14.5-32.83 13.59-30.01 12.68-27.2 12.68-23.69L12.68-23.69Q12.68-20.15 13.59-17.34 14.5-14.53 16.2-12.58 17.91-10.63 20.39-9.6 22.88-8.58 26.07-8.58L26.07-8.58Q29.22-8.58 31.69-9.6 34.16-10.63 35.86-12.58 37.57-14.53 38.48-17.34 39.39-20.15 39.39-23.69ZM67.92-47.35L67.92 0 56.88 0 56.88-47.35 67.92-47.35ZM93.41-15.83L87.69-15.83 87.69 0 76.7 0 76.7-47.35 93.41-47.35Q98.41-47.35 102-46.17 105.59-44.98 107.92-42.9 110.24-40.82 111.34-37.99 112.45-35.16 112.45-31.88L112.45-31.88Q112.45-28.34 111.31-25.38 110.17-22.43 107.84-20.31 105.5-18.2 101.9-17.01 98.31-15.83 93.41-15.83L93.41-15.83ZM87.69-39.13L87.69-24.12 93.41-24.12Q97.69-24.12 99.58-26.16 101.47-28.21 101.47-31.88L101.47-31.88Q101.47-33.51 100.98-34.84 100.49-36.17 99.5-37.13 98.51-38.09 97-38.61 95.48-39.13 93.41-39.13L93.41-39.13 87.69-39.13Z&quot; transform=&quot;translate(-1.4300000667572021, 47.869998931884766)&quot;&gt;&lt;/path&gt;&lt;/g&gt; &lt;!----&gt; &lt;!----&gt; &lt;!----&gt; &lt;!----&gt; &lt;!----&gt; &lt;!----&gt; &lt;!----&gt;&lt;/g&gt;&lt;/g&gt;&lt;/g&gt; &lt;!----&gt;&lt;/g&gt;&lt;/g&gt;&lt;mask id=&quot;532fce57-1d88-4c79-b72a-7c59b8a8f542&quot;&gt;&lt;g fill=&quot;white&quot;&gt;&lt;rect data-gra=&quot;graph-name&quot; x=&quot;0&quot; y=&quot;0&quot; width=&quot;131.0199966430664&quot; height=&quot;68.38999938964844&quot; transform=&quot;skewX(10)&quot;&gt;&lt;/rect&gt;&lt;/g&gt; &lt;g data-gra=&quot;path-name&quot; fill-rule=&quot;&quot; class=&quot;tp-name&quot; transform=&quot;translate(16.029501051515236,10)&quot; fill=&quot;black&quot;&gt;&lt;g transform=&quot;scale(1)&quot;&gt;&lt;g&gt;&lt;path d=&quot;M50.64-23.69L50.64-23.69Q50.64-18.56 48.86-14.14 47.09-9.72 43.88-6.45 40.66-3.19 36.12-1.33 31.59 0.52 26.07 0.52L26.07 0.52Q20.54 0.52 15.99-1.33 11.44-3.19 8.21-6.45 4.97-9.72 3.2-14.14 1.43-18.56 1.43-23.69L1.43-23.69Q1.43-28.83 3.2-33.25 4.97-37.67 8.21-40.92 11.44-44.17 15.99-46.02 20.54-47.87 26.07-47.87L26.07-47.87Q31.59-47.87 36.12-46 40.66-44.13 43.88-40.88 47.09-37.63 48.86-33.22 50.64-28.8 50.64-23.69ZM39.39-23.69L39.39-23.69Q39.39-27.2 38.48-30.01 37.57-32.83 35.86-34.77 34.16-36.73 31.69-37.77 29.22-38.8 26.07-38.8L26.07-38.8Q22.88-38.8 20.39-37.77 17.91-36.73 16.2-34.77 14.5-32.83 13.59-30.01 12.68-27.2 12.68-23.69L12.68-23.69Q12.68-20.15 13.59-17.34 14.5-14.53 16.2-12.58 17.91-10.63 20.39-9.6 22.88-8.58 26.07-8.58L26.07-8.58Q29.22-8.58 31.69-9.6 34.16-10.63 35.86-12.58 37.57-14.53 38.48-17.34 39.39-20.15 39.39-23.69ZM67.92-47.35L67.92 0 56.88 0 56.88-47.35 67.92-47.35ZM93.41-15.83L87.69-15.83 87.69 0 76.7 0 76.7-47.35 93.41-47.35Q98.41-47.35 102-46.17 105.59-44.98 107.92-42.9 110.24-40.82 111.34-37.99 112.45-35.16 112.45-31.88L112.45-31.88Q112.45-28.34 111.31-25.38 110.17-22.43 107.84-20.31 105.5-18.2 101.9-17.01 98.31-15.83 93.41-15.83L93.41-15.83ZM87.69-39.13L87.69-24.12 93.41-24.12Q97.69-24.12 99.58-26.16 101.47-28.21 101.47-31.88L101.47-31.88Q101.47-33.51 100.98-34.84 100.49-36.17 99.5-37.13 98.51-38.09 97-38.61 95.48-39.13 93.41-39.13L93.41-39.13 87.69-39.13Z&quot; transform=&quot;translate(-1.4300000667572021, 47.869998931884766)&quot;&gt;&lt;/path&gt;&lt;/g&gt;       &lt;/g&gt;&lt;/g&gt;&lt;/mask&gt;&lt;defs v-gra=&quot;od&quot;&gt;&lt;/defs&gt;&lt;/svg&gt;" style="rounded=0;whiteSpace=wrap;html=1;" vertex="1" parent="1">
          <mxGeometry x="870" y="120" width="120" height="60" as="geometry" />
        </mxCell>
      </root>
    </mxGraphModel>
  </diagram>
</mxfile>
